<mxfile host="app.diagrams.net" modified="2024-05-16T18:49:58.561Z" agent="Mozilla/5.0 (Windows NT 10.0; Win64; x64) AppleWebKit/537.36 (KHTML, like Gecko) Chrome/124.0.0.0 Safari/537.36" version="24.4.3" etag="bfT-OCt9tW3wZWcyH1BW" type="github">
  <diagram name="PÃ¡gina-1" id="sFj-9nxojYG9Ir2EwKP6">
    <mxGraphModel>
      <root>
        <mxCell id="0" />
        <mxCell id="1" parent="0" />
      </root>
    </mxGraphModel>
  </diagram>
</mxfile>
